<?xml version="1.0" encoding="UTF-8" standalone="no"?>
<svg
   xmlns:dc="http://purl.org/dc/elements/1.1/"
   xmlns:cc="http://creativecommons.org/ns#"
   xmlns:rdf="http://www.w3.org/1999/02/22-rdf-syntax-ns#"
   xmlns:svg="http://www.w3.org/2000/svg"
   xmlns="http://www.w3.org/2000/svg"
   viewBox="0 0 1333.3333 1333.3333"
   height="1333.3333"
   width="1333.3333"
   xml:space="preserve"
   id="svg2"
   version="1.1"><metadata
     id="metadata8"><rdf:RDF><cc:Work
         rdf:about=""><dc:format>image/svg+xml</dc:format><dc:type
           rdf:resource="http://purl.org/dc/dcmitype/StillImage" /></cc:Work></rdf:RDF></metadata><defs
     id="defs6"><clipPath
       id="clipPath18"
       clipPathUnits="userSpaceOnUse"><path
         id="path16"
         d="m 475.102,908.481 c -13.333,-2.266 -26.672,-4.565 -39.992,-6.845 v 0 c 4.794,-9.24 10.044,-17.99 15.695,-26.36 v 0 c -22.213,0.926 -44.474,1.844 -66.686,2.769 v 0 c 10.272,-37.361 24.837,-72.159 43.109,-103.581 v 0 c 5.065,3.817 10.172,7.587 15.228,11.404 v 0 c -11.51,-50.93 -31.857,-84.155 -31.857,-84.155 v 0 c -11.143,26.578 -24.962,50.305 -38.857,70.465 v 0 c 5.536,22.481 3.427,45.017 0.852,59.449 v 0 c 3.102,-0.708 6.231,-1.436 9.371,-2.171 v 0 c 2.072,17.794 1.756,36.362 -0.931,55.292 v 0 c -11.34,-5.531 -22.683,-11.03 -34.032,-16.521 v 0 c 4.206,-9.873 7.185,-20.848 8.822,-32.633 v 0 c 3.276,-0.741 6.481,-1.504 9.743,-2.299 v 0 c 2.804,-18.665 -0.922,-38.561 -3.191,-48.059 v 0 c -10.489,14.179 -20.732,26.141 -29.415,35.64 v 0 c 7.761,34.777 11.244,71.52 10.009,109.427 v 0 c -24.093,-8.574 -48.198,-17.161 -72.329,-25.727 v 0 c 6.293,-20.828 9.896,-43.575 10.506,-67.716 v 0 c 10.182,-3.654 20.378,-7.246 30.565,-10.873 v 0 c 7.165,-7.213 13.822,-14.855 20.004,-22.544 v 0 c -8.58,-0.455 -26.458,-0.489 -43.439,5.002 v 0 c 2.376,1.035 4.75,2.122 7.142,3.239 v 0 C 276.655,842.8 253.191,872.283 225.4,899.295 v 0 c -11.381,-22.909 -22.808,-45.833 -34.209,-68.756 v 0 c 19.008,-10.595 37.45,-24.455 54.658,-41.398 v 0 c 10.871,4.926 21.774,9.887 32.643,14.826 v 0 c 13.487,-7.307 35.18,-15.282 62.015,-11.683 v 0 C 359.1,767.558 369.694,746.69 374.1,738.804 v 0 c -6.954,2.047 -13.555,3.401 -19.542,4.313 v 0 c -1.113,8.628 -2.181,17.249 -3.283,25.843 v 0 c -21.618,2.987 -42.571,8.641 -62.317,16.82 v 0 c -4.066,-32.267 -8.165,-64.545 -12.227,-96.812 v 0 c 28.339,2.123 56.047,7.784 82.526,16.808 v 0 c -1.215,9.77 -2.477,19.541 -3.723,29.325 v 0 c 21.611,-5.129 30.855,-19.242 30.855,-19.242 v 0 c 10.195,-22.666 24.723,-61.518 38.549,-100.05 v 0 c -6.562,2.83 -16.653,7.934 -31.334,16.868 v 0 c 2.77,1.755 5.509,3.497 8.237,5.239 v 0 c -14.234,17.549 -31.255,33.633 -50.688,47.827 v 0 c -5.022,-15.092 -10.057,-30.17 -15.062,-45.254 v 0 c 12.612,-4.872 25.163,-11.807 37.216,-20.719 v 0 c 3.971,2.51 7.941,5.048 11.911,7.579 v 0 c 13.276,-9.498 30.738,-21.522 46.586,-30.897 v 0 c 18.007,-50.911 33.14,-96.261 33.14,-96.261 v 0 c -10.574,8.805 -58.956,40.825 -104.449,70.438 v 0 c -11.939,17.976 -22.182,41.465 -29.684,61.333 v 0 c 1.357,-0.102 2.759,-0.224 4.167,-0.327 v 0 c -0.622,17.433 -3.578,35.295 -8.96,53.095 v 0 c -10.129,-6.934 -20.274,-13.908 -30.347,-20.856 v 0 c 5.497,-8.906 9.968,-19.018 13.251,-30.143 v 0 c 3.157,-0.251 6.3,-0.523 9.481,-0.775 v 0 c 6.257,-21.625 13.251,-40.635 14.684,-44.452 v 0 c -17.198,11.111 -32.528,20.977 -43.295,27.897 v 0 c -8.091,5.198 -17.515,14.071 -27.065,24.441 v 0 c 10.319,21.257 9.932,55.965 7.549,68.818 v 0 c 2.698,0.307 5.366,0.653 8.044,0.974 v 0 c -4.175,17.411 -10.785,34.749 -19.774,51.603 v 0 c -8.804,-9.044 -17.568,-18.106 -26.346,-27.176 v 0 c 7.325,-7.798 13.904,-17.079 19.464,-27.605 v 0 c 3.943,0.476 7.88,0.931 11.86,1.395 v 0 c 1.031,-25.156 -6.321,-51.597 -8.652,-59.225 v 0 c -18.78,21.699 -36.882,46.882 -45.33,59.013 v 0 c 8.226,2.641 16.524,4.853 24.958,6.614 v 0 c -14.868,28.933 -29.741,57.885 -44.602,86.809 v 0 c -22.219,-17.725 -41.89,-38.09 -58.615,-60.483 v 0 c 14.077,-15.895 28.18,-31.763 42.288,-47.67 v 0 c 8.859,4.45 17.94,8.321 27.166,11.696 v 0 c 7.386,-12.466 16.701,-23.713 25.156,-34.675 v 0 c -5.471,-0.714 -24.006,-1.034 -38.21,2.851 v 0 c 0.507,4.403 1.058,8.757 1.562,13.146 v 0 c -16.544,5.505 -33.923,8.887 -51.586,10.071 v 0 c 2.714,-20.148 5.402,-40.247 8.144,-60.388 v 0 c 12.275,5.218 25.322,8.846 38.794,10.826 v 0 c 0.8,6.851 1.626,13.751 2.426,20.637 v 0 c 8.666,-2.905 22.472,-6.049 42.837,-6.479 v 0 c 12.88,-16.975 23.016,-30.972 23.016,-30.972 v 0 c -57.725,18.542 -98.663,5.872 -110.149,1.443 v 0 c -2.187,3.565 -4.385,7.138 -6.559,10.695 v 0 c -17.685,-3.286 -34.787,-4.164 -50.93,-2.823 v 0 c -2.521,-18.875 -5.045,-37.743 -7.511,-56.611 v 0 c 28.363,5.096 55.121,13.506 79.63,24.916 v 0 c -2.971,4.839 -5.919,9.642 -8.883,14.473 v 0 c 16.05,5.076 51.828,12.588 92.514,-3.327 v 0 c 13.846,-5.376 31.186,-14.139 50.13,-25.094 v 0 c -16.626,-1.926 -46.548,-5.348 -67.247,-7.396 v 0 c -0.629,4.845 -1.254,9.669 -1.843,14.534 v 0 c -21.651,2.939 -42.588,8.608 -62.351,16.792 v 0 c -4.066,-32.299 -8.138,-64.538 -12.2,-96.832 v 0 c 28.313,2.137 56.057,7.785 82.535,16.814 v 0 c -1.744,13.942 -3.538,27.89 -5.313,41.805 v 0 c 22.396,1.267 58.762,3.424 81.607,5.179 v 0 c 22.6,-13.853 46.589,-30.259 69.005,-47.453 v 0 c -10.114,-1.687 -30.963,-3.92 -55.751,0 v 0 c 0.575,4.545 1.12,9.104 1.657,13.704 v 0 c -28.19,0.067 -57.162,-3.62 -86.223,-11.158 v 0 c 10.352,-16.365 20.647,-32.71 30.979,-49.053 v 0 c -7.481,0.45 -14.662,0.706 -21.382,0.782 v 0 c -12.867,-0.382 -24.193,-0.15 -33.542,-1.443 v 0 c -4.59,-0.461 -8.753,-0.892 -12.445,-1.279 v 0 c -3.779,-0.421 -7.073,-0.796 -9.849,-1.095 v 0 c 0.092,-3.423 0.419,-8.601 0.537,-10.097 v 0 c -3.603,-0.354 -9.574,-0.986 -12.468,-1.301 v 0 c 0,0 0.354,-7.137 0.439,-8.328 v 0 c 0.109,-1.844 0.272,-2.729 0.414,-3.04 v 0 c -1.659,-0.157 -7.739,-0.3 -7.787,-0.518 v 0 l 0.098,-1.396 c 0.014,-1.067 0.08,-2.089 0.12,-3.081 v 0 c 0.064,-1.49 0.17,-2.858 0.234,-4.042 v 0 c 0.028,-0.626 0.096,-0.952 0.14,-1.409 v 0 c -1.976,-0.223 -8.856,-0.823 -8.856,-0.823 v 0 c 0.045,-1.13 0.194,-6.009 0.245,-6.893 v 0 c -1.752,-0.109 -10.332,-0.721 -11.077,-0.823 v 0 -2.362 -5.953 -38.859 c 0,-104.942 0.268,-199.937 0.745,-268.735 v 0 c 0.34,-34.246 0.609,-62.034 0.83,-81.434 v 0 c 0.174,-9.493 0.853,-29.897 0.963,-29.897 v 0 c 0.176,0 157.073,32.374 300.905,21.182 v 0 c 28.891,-12.255 87.986,-15.173 117.033,0.713 v 0 C 712.275,50.143 861.963,19.204 862.106,19.204 v 0 c 0.129,0 0.809,20.404 1.026,29.897 v 0 c 0.171,19.4 0.436,47.188 0.778,81.434 v 0 c 0.461,68.798 0.747,163.793 0.747,268.735 v 0 38.859 5.953 2.362 c -0.747,0.102 -9.302,0.714 -11.076,0.823 v 0 c 0.047,0.884 0.19,5.763 0.257,6.893 v 0 c 0,0 -6.912,0.6 -8.859,0.823 v 0 c 0.035,0.457 0.076,0.783 0.129,1.409 v 0 c 0.082,1.184 0.17,2.552 0.225,4.042 v 0 c 0.068,0.992 0.095,2.014 0.142,3.081 v 0 l 0.104,1.396 c -0.075,0.218 -6.118,0.361 -7.828,0.518 v 0 c 0.152,0.311 0.307,1.196 0.439,3.04 v 0 c 0.086,1.191 0.441,8.328 0.441,8.328 v 0 c -2.878,0.315 -8.866,0.947 -12.471,1.301 v 0 c 0.129,1.496 0.42,6.674 0.55,10.097 v 0 c -2.796,0.299 -6.077,0.674 -9.873,1.095 v 0 c -3.689,0.387 -7.825,0.818 -12.438,1.279 v 0 c -9.322,1.293 -20.673,1.061 -33.558,1.443 v 0 c -24.844,-0.293 -55.591,-2.77 -88.061,-9.866 v 0 c 0.257,6.723 0.501,13.405 0.762,20.106 v 0 c -14.453,1.246 -29.363,4.628 -44.426,10.213 v 0 c -4.845,-5.558 -9.689,-11.043 -14.567,-16.581 v 0 c -5.921,1.095 -15.692,3.122 -25.367,6.095 v 0 c 31.762,28.219 72.561,53.68 72.561,53.68 v 0 c 40.764,-15.288 69.839,-14.97 84.945,-12.955 v 0 c 1.374,-7.294 2.708,-14.622 4.054,-21.965 v 0 c 20.759,-3.816 39.859,-10.021 56.945,-18.331 v 0 c 10.69,19.605 21.332,39.193 32.043,58.817 v 0 c -3.403,0.653 -6.785,1.218 -10.173,1.77 v 0 c 2.769,7.893 5.532,15.757 8.308,23.623 v 0 c 2.789,-2.271 5.633,-4.585 8.463,-6.844 v 0 c 20.931,12.111 42.173,20.963 63.226,26.496 v 0 c -5.294,25.04 -10.642,50.072 -15.949,75.098 v 0 c -33.654,-19.235 -63.729,-41.934 -89.659,-67.423 v 0 c 1.885,-1.505 3.741,-3.014 5.653,-4.573 v 0 c -14.628,-1.13 -29.592,-3.477 -42.438,-5.837 v 0 c -1.829,3.673 -2.877,7.926 -3.436,12.111 v 0 c 1.85,-0.728 3.647,-1.456 5.476,-2.171 v 0 c 4.432,8.308 7.997,17.235 10.705,26.611 v 0 c -8.954,0.552 -17.854,1.109 -26.823,1.634 v 0 c 0.748,-7.063 0.68,-14.411 -0.142,-21.814 v 0 c 2.117,-0.851 4.171,-1.634 6.239,-2.478 v 0 c 0.434,-5.994 1.891,-11.553 2.904,-14.826 v 0 c -14.54,-2.851 -25.568,-5.477 -28.857,-6.008 v 0 c 2.921,20.386 18.04,47.63 25.341,59.891 v 0 c 7.92,-5.253 15.602,-10.955 22.93,-17.133 v 0 c 17.42,12.207 34.791,24.379 52.203,36.573 v 0 c -11.119,25.666 -25.551,50.005 -43.031,72.397 v 0 c -21.162,-24.685 -42.323,-49.413 -63.485,-74.111 v 0 c 9.242,-4.363 18.243,-9.357 26.987,-14.834 v 0 C 748.378,639.76 731.184,593.131 731.184,593.131 v 0 c -8.151,-2.035 -16.649,-4.662 -25.217,-7.704 v 0 c 0.055,9.01 -2.109,18.788 -5.142,27.981 v 0 c 0.175,0 0.352,-0.015 0.543,-0.015 v 0 c -0.626,17.432 -3.613,35.274 -8.967,53.047 v 0 c -10.133,-6.934 -20.236,-13.888 -30.375,-20.829 v 0 c 5.519,-8.913 9.982,-19.004 13.253,-30.156 v 0 c 5.377,-0.408 10.732,-0.83 16.088,-1.265 v 0 c 3.966,-15.263 4.367,-26.605 4.089,-32.675 v 0 c -24.237,-9.471 -49.01,-21.902 -70.989,-33.986 v 0 c 2.402,7.599 6.402,17.316 10.267,25.89 v 0 c 6.608,-0.688 13.221,-1.375 19.849,-2.082 v 0 c 6.354,12.519 13.995,23.522 22.521,32.83 v 0 C 666.625,614.7 656.114,625.28 645.628,635.8 v 0 c -2.423,-4.723 -4.736,-9.478 -6.818,-14.228 v 0 c -10.234,2.273 -20.426,4.586 -30.638,6.852 v 0 c 6.64,14.609 11.082,24.421 11.082,24.421 v 0 c 30.354,17.079 43.637,35.001 48.924,44.487 v 0 c 4.857,-10.316 9.77,-20.59 14.656,-30.892 v 0 c 30.843,19.303 59.891,43.302 86.414,71.546 v 0 c -23.129,10.962 -46.215,21.978 -69.336,32.975 v 0 c -10.248,-19.175 -23.808,-37.839 -40.457,-55.32 v 0 c 2.02,-4.232 4.001,-8.464 6.041,-12.69 v 0 c -19.67,-25.747 -43.051,-33.552 -43.051,-33.552 v 0 c 9.533,24.094 25.768,69.765 39.969,110.393 v 0 c 28.258,15.432 42.901,28.543 50.413,37.485 v 0 c 2.252,-9.472 4.857,-18.991 7.756,-28.441 v 0 c 20.999,14.648 41.996,29.277 62.988,43.886 v 0 c -11.622,18.467 -21.08,39.472 -28.046,62.539 v 0 c -18.148,1.368 -36.193,2.721 -54.32,4.054 v 0 c 1.061,-25.128 4.533,-50.698 10.33,-76.329 v 0 c -11.568,-11.854 -34.328,-23.944 -44.092,-28.789 v 0 c 12.791,36.715 22.814,66.124 22.814,66.124 v 0 l -6.892,0.4 c -2.907,-7.708 -7.146,-18.853 -11.949,-31.265 v 0 c -12.329,9.663 -18.086,25.061 -20.666,34.899 v 0 c 8.289,-2.918 16.57,-5.879 24.884,-8.831 v 0 c 8.125,35.435 11.746,72.948 10.514,111.658 v 0 c -24.122,-8.56 -48.223,-17.106 -72.35,-25.693 v 0 c 6.3,-20.829 9.893,-43.588 10.512,-67.716 v 0 c 6.559,-2.314 13.126,-4.695 19.671,-6.982 v 0 c 2.681,-23.577 17.991,-41.28 23.686,-47.085 v 0 c -14.172,-36.662 -30.844,-79.201 -30.844,-79.201 v 0 c -0.788,6.32 -2.552,13.023 -4.668,19.446 v 0 c 3.457,3.994 7.009,7.954 10.451,11.956 v 0 c -4.544,8.633 -7.783,17.377 -9.675,25.998 v 0 c -10.247,-1.735 -20.441,-3.484 -30.661,-5.26 v 0 c 6.159,-11.806 13.351,-22.618 21.421,-32.279 v 0 c 7.832,-32.015 0.28,-43.642 0.28,-43.642 v 0 C 618.268,688.84 601.44,651.273 582.702,615.353 v 0 c -4.246,11.676 -6.356,26.475 -7.389,39.193 v 0 c 3.599,0.783 7.322,1.483 11.05,2.007 v 0 c 1.557,13.187 3.13,26.346 4.633,39.505 v 0 c -16.555,5.526 -33.905,8.888 -51.584,10.05 v 0 c 2.599,-19.058 5.145,-38.124 7.739,-57.196 v 0 c -2.226,1.286 -4.417,2.64 -6.63,3.96 v 0 c -4.938,-8.539 -11.437,-16.575 -19.378,-23.958 v 0 c 1.341,-3.109 2.689,-6.124 4.002,-9.206 v 0 c -6.335,-6.621 -11.108,-7.172 -11.108,-7.172 v 0 c 1.181,11.724 1.86,42.894 2.228,76.936 v 0 c 9.036,9.758 16.398,22.706 21.733,33.858 v 0 c 8.369,-5.334 16.752,-10.669 25.121,-16.01 v 0 c 16.902,12.527 34.505,22.291 52.203,29.102 v 0 c -7.037,21.182 -14.031,42.357 -21.106,63.531 v 0 c -27.285,-19.916 -51.142,-42.52 -71.147,-67.11 v 0 c 3.259,-2.068 6.553,-4.158 9.82,-6.26 v 0 c -5.316,-9.377 -11.786,-17.262 -16.461,-22.393 v 0 c 0.421,51.045 0.284,103.282 0.284,103.282 v 0 c 11.611,6.954 19.986,15.459 25.804,22.985 v 0 c -0.217,-6.784 -0.435,-13.575 -0.653,-20.366 v 0 c 28.006,-6.579 57.074,-9.117 86.367,-7.504 v 0 c -8.036,31.544 -16.058,63.068 -24.109,94.592 v 0 c -18.548,-10.579 -38.81,-18.44 -60.136,-23.406 v 0 c -0.338,-10.723 -0.722,-21.508 -1.082,-32.232 v 0 c -9.804,-13.534 -25.678,-22.699 -25.678,-22.699 v 0 c 2.169,35.661 -2.075,65.484 -4.178,77.535 v 0 c 9.103,2.266 18.352,3.987 27.768,5.157 v 0 c 2.994,21.018 5.988,42.023 8.981,63.048 v 0 c -27.142,9.601 -55.808,15.243 -85.05,16.787 v 0 c 3.467,-24.312 6.934,-48.589 10.356,-72.888 m 12.877,-42.785 c 1.756,2.007 3.502,4.014 5.251,6.036 v 0 c -2.804,5.313 -5.251,10.689 -7.366,16.023 v 0 c 6.994,2.743 14.18,5.11 21.488,7.152 v 0 c 1.908,-10.159 2.737,-23.434 2.881,-38.118 v 0 c -10.401,2.362 -17.45,5.607 -22.254,8.907 m -71.376,-177.04 c 22.437,42.676 33.095,88.013 36.6,105.235 v 0 c 5.865,4.375 11.741,8.79 17.62,13.173 v 0 c -5.148,18.255 -8.257,36.253 -9.421,53.699 v 0 c 3.504,-4.484 7.121,-8.818 10.928,-12.989 v 0 c 3.702,4.266 7.423,8.511 11.163,12.805 v 0 c 9.09,-7.192 20.844,-10.649 26.784,-12.016 v 0 c -0.393,-53.23 -8.583,-119.225 -8.583,-119.225 v 0 c -7.047,5.899 -12.649,14.581 -16.926,23.169 v 0 c 3.913,2.627 8.015,5.055 12.264,7.185 v 0 c -2.044,9.696 -4.054,19.379 -6.106,29.108 v 0 c -13.067,-0.067 -26.138,-1.774 -38.968,-5.171 v 0 c 6.722,-13.608 13.441,-27.217 20.148,-40.852 v 0 c 2.599,2.313 5.313,4.456 8.12,6.504 v 0 c 8.668,-19.365 19.791,-30.599 19.791,-30.599 v 0 c -0.589,-9.661 -1.484,-24.828 -2.511,-42.757 v 0 c -14.646,1.769 -23.223,11.227 -28.024,19.991 v 0 c 1.573,-0.123 3.137,-0.251 4.73,-0.354 v 0 c -0.613,17.419 -3.579,35.281 -8.972,53.081 v 0 c -10.108,-6.942 -20.198,-13.888 -30.372,-20.89 v 0 c 5.496,-8.9 10.006,-18.95 13.29,-30.123 v 0 c 3.531,-0.258 7.103,-0.564 10.648,-0.856 v 0 c 3.257,-9.023 8.72,-16.44 14.636,-22.332 v 0 c -8.607,0.783 -17.215,1.183 -25.825,1.027 v 0 c -2.518,-13.336 -5.1,-26.686 -7.631,-40.015 v 0 c -12.976,30.367 -23.383,53.202 -23.383,53.202 m 133.834,-41.738 c 4.939,1.994 10.001,3.722 15.159,5.191 v 0 c 0.259,-5.007 0.694,-10.069 1.292,-15.092 v 0 c -5.47,3.308 -10.953,6.622 -16.451,9.901 m -54.932,-7.437 c -3.473,-62.429 -7.311,-134.249 -7.311,-134.249 v 0 c -3.582,15.944 -11.809,39.65 -21.495,64.778 v 0 c 2.926,12.485 3.842,27.046 3.899,39.988 v 0 c 2.705,-2.062 5.386,-4.192 7.974,-6.417 v 0 c 5.635,11.929 11.268,23.938 16.933,35.9 m 72.472,-10.567 c 1.837,-12.227 4.164,-23.311 5.777,-30.306 v 0 c -28.142,-51.794 -57.149,-95.953 -57.149,-95.953 v 0 c -1.566,11.063 -1.266,94.333 -1.266,94.333 v 0 c 5.635,4.662 10.221,9.098 13.928,13.234 v 0 c 0.838,-1.96 1.737,-3.925 2.572,-5.871 v 0 c 12.718,6.417 24.871,14.676 36.138,24.563 M 443.5,627.159 c 6.811,-3.532 13.361,-7.486 19.63,-11.786 v 0 c -0.765,-9.852 -2.336,-19.242 -3.813,-26.597 v 0 c -5.244,13.131 -10.683,26.17 -15.817,38.383 m 360.204,-28.803 c 10.057,1.769 18.569,2.974 24.912,3.756 v 0 c 6.265,-5.029 12.527,-10.077 18.758,-15.119 v 0 c -7.553,2.593 -15.05,6.444 -22.189,11.505 v 0 c -3.544,-2.482 -7.123,-5.007 -10.696,-7.525 v 0 c -3.803,2.28 -7.635,4.797 -10.785,7.383 m -173.277,1.858 c -2.911,-8.478 -5.354,-17.018 -7.281,-25.578 v 0 c 1.449,-0.156 2.879,-0.305 4.37,-0.469 v 0 c -6.54,-12.86 -13.12,-27.305 -16.127,-34.062 v 0 c -34.783,-19.964 -59.877,-37.45 -59.877,-37.45 v 0 c 2.333,5.456 9.458,21.324 18.194,40.825 v 0 c 15.922,10.866 28.231,26.455 36.158,38.437 v 0 c 1.402,-1.749 2.803,-3.51 4.231,-5.328 v 0 c 7.22,7.219 14.012,15.147 20.332,23.625 m -36.477,-3.158 c 2.457,-3.143 4.94,-6.253 7.396,-9.389 v 0 c -8.015,-9.921 -15.752,-17.208 -21.597,-22.019 v 0 c 4.715,10.438 9.607,21.195 14.201,31.408 m 90.7,-34.98 c 38.669,18.338 79.787,28.802 110.196,34.654 v 0 c 3.538,-2.395 8.852,-5.994 14.343,-9.54 v 0 c -0.749,-0.496 -1.476,-1.021 -2.15,-1.503 v 0 c 5.98,-7.526 12.86,-14.521 20.604,-20.904 v 0 c -25.68,3.436 -50.972,4.336 -75.542,2.654 v 0 c 1.096,-5.831 2.15,-11.656 3.238,-17.452 v 0 c -52.392,0.721 -70.689,12.091 -70.689,12.091 M 468.064,428.623 c -6.614,4.218 -16.365,10.05 -28.919,16.291 v 0 c -12.476,6.415 -27.812,13.05 -45.18,19.582 v 0 c -8.791,3.035 -17.902,6.478 -27.636,9.166 v 0 c -4.885,1.332 -9.763,2.959 -14.846,4.162 v 0 c -5.056,1.226 -10.19,2.45 -15.392,3.696 v 0 c -23.903,5.402 -46.786,8.173 -67.342,9.477 v 0 c 14.235,7.825 30.085,14.127 47.46,18.502 v 0 c 0.758,6.574 1.583,13.173 2.331,19.732 v 0 c 19.504,-3.966 49.061,-7.953 68.937,-1.027 v 0 c 41.809,-33.523 84.335,-66.729 85.587,-92.15 v 0 c 0.181,-3.696 0.338,-7.431 0.504,-11.18 v 0 c -1.517,1.068 -3.259,2.287 -5.504,3.749 m 71.784,12.052 c 0.198,27.133 35.016,41.607 51.36,53.936 v 0 c 7.694,-0.836 18.282,-1.884 29.183,-3.49 v 0 c -1.722,-1.966 -3.436,-3.913 -5.164,-5.9 v 0 c 7.634,-5.28 15.731,-10.091 24.045,-14.69 v 0 c -6.095,-1.993 -12.05,-4.048 -17.8,-6.035 v 0 c -17.351,-6.532 -32.714,-13.167 -45.167,-19.582 v 0 c -12.58,-6.241 -22.323,-12.073 -28.904,-16.291 v 0 c -3.443,-2.212 -5.961,-4.015 -7.607,-5.253 v 0 c 0,5.723 0,11.472 0.054,17.305 m 242.825,47.284 c 7.984,0.115 15.207,0.231 21.536,-0.343 v 0 c 4.585,-0.21 8.749,-0.427 12.418,-0.619 v 0 c 3.49,-0.17 6.23,-0.462 7.642,-0.462 v 0 c -0.192,-2.443 -0.586,-6.715 -0.492,-8.254 v 0 c -1.428,0.135 -1.171,0.177 -2.708,0.34 v 0 c -5.804,0.435 -12.377,1.559 -19.686,1.531 v 0 c -29.169,1.627 -69.987,-0.496 -113.637,-10.151 v 0 c -1.843,-0.422 -3.64,-0.83 -5.478,-1.245 v 0 c 0.116,2.727 0.198,5.463 0.315,8.177 v 0 c 32.571,7.227 63.386,10.099 88.326,10.935 v 0 c 0.545,-0.002 1.089,-0.003 1.63,-0.003 v 0 c 3.498,0 6.88,0.047 10.134,0.094 m -591.482,-1.424 c 1.384,0 4.14,0.292 7.651,0.462 v 0 c 3.654,0.192 7.792,0.409 12.398,0.619 v 0 c 6.33,0.574 13.546,0.458 21.522,0.343 v 0 c 3.754,-0.055 7.676,-0.109 11.754,-0.091 v 0 c 25.485,-0.905 57.087,-3.776 90.415,-11.35 v 0 c 5.161,-1.204 10.248,-2.409 15.296,-3.592 v 0 c 5.029,-1.183 9.826,-2.796 14.687,-4.103 v 0 c 9.659,-2.584 18.752,-5.871 27.452,-8.757 v 0 c 17.262,-6.254 32.64,-12.424 45.21,-18.412 v 0 c 12.664,-5.77 22.618,-11.057 29.46,-14.772 v 0 c 2.766,-1.443 4.869,-2.619 6.583,-3.572 v 0 c 0.14,-3.478 0.272,-7.016 0.384,-10.534 v 0 c -1.769,1.219 -4.221,2.796 -7.504,4.749 v 0 c -7.018,4.192 -17.399,9.901 -30.637,16.107 v 0 c -13.173,6.328 -29.371,12.846 -47.544,19.398 v 0 c -9.234,2.947 -18.818,6.41 -28.983,9.05 v 0 c -5.066,1.395 -10.21,2.96 -15.487,4.219 v 0 c -5.327,1.232 -10.696,2.457 -16.15,3.702 v 0 c -43.683,9.655 -84.454,11.778 -113.628,10.151 v 0 c -7.317,0.028 -13.894,-1.096 -19.692,-1.531 v 0 c -1.521,-0.163 -1.269,-0.205 -2.674,-0.34 v 0 c 0.069,1.539 -0.313,5.811 -0.513,8.254 m 490.874,-23.04 c 2.252,0.49 4.484,1.001 6.756,1.531 v 0 c 43.228,9.547 83.495,12.194 112.475,11.492 v 0 c 7.253,0.322 30.401,-1.667 34.553,-1.849 v 0 c 0,0 -0.763,-7.792 -0.696,-8.929 v 0 c 0,0 -3.939,0.396 -7.674,0.783 v 0 c -5.865,0.517 -12.602,1.532 -20.017,1.49 v 0 c -29.777,1.702 -71.268,-0.524 -115.809,-9.989 v 0 c -3.348,-0.721 -6.6,-1.387 -9.873,-2.136 v 0 c 0.087,2.531 0.197,5.083 0.285,7.607 m -355.432,1.531 c 5.409,-1.238 10.707,-2.429 15.97,-3.64 v 0 c 5.267,-1.239 10.339,-2.763 15.36,-4.103 v 0 c 10.132,-2.551 19.659,-5.913 28.82,-8.73 v 0 c 18.137,-6.226 34.29,-12.342 47.572,-18.235 v 0 c 13.374,-5.71 23.914,-10.927 31.21,-14.554 v 0 c 3.74,-1.845 6.564,-3.28 8.482,-4.246 v 0 c 0.103,-3.11 0.188,-6.296 0.304,-9.419 v 0 c -1.841,1.192 -4.603,2.887 -8.254,4.879 v 0 c -7.267,4.063 -17.976,9.609 -31.633,15.576 v 0 c -13.527,6.219 -30.126,12.493 -48.763,18.929 v 0 c -9.451,2.816 -19.215,6.281 -29.619,8.812 v 0 c -5.178,1.382 -10.451,2.749 -15.803,4.178 v 0 c -5.453,1.184 -10.913,2.374 -16.459,3.551 v 0 c -44.568,9.465 -86.063,11.691 -115.809,9.989 v 0 c -7.45,0.042 -14.156,-0.973 -20.048,-1.49 v 0 c -3.705,-0.387 -7.666,-0.783 -7.666,-0.783 v 0 c 0.065,1.137 -0.69,8.929 -0.69,8.929 v 0 c 4.18,0.182 27.281,2.171 34.558,1.849 v 0 c 28.986,0.702 69.204,-1.945 112.468,-11.492 m 213.161,-42.805 c 1.783,0.966 4.601,2.497 8.655,4.661 v 0 c 6.798,3.715 16.752,9.002 29.409,14.772 v 0 c 12.601,5.988 27.951,12.158 45.199,18.412 v 0 c 7.112,2.368 14.543,4.871 22.243,7.179 v 0 c 3.484,-1.852 7.092,-3.497 10.697,-5.192 v 0 c -10.144,-2.633 -19.678,-6.076 -28.87,-9.023 v 0 c -18.174,-6.552 -34.375,-13.07 -47.514,-19.398 v 0 c -13.242,-6.206 -23.638,-11.915 -30.654,-16.107 v 0 c -4.552,-2.674 -7.519,-4.687 -9.111,-5.898 v 0 c -0.027,3.523 -0.054,7.035 -0.054,10.594 m 0.129,-21.753 c 1.816,0.735 5.206,2.395 10.358,4.754 v 0 c 7.477,3.492 18.377,8.493 32.094,14.052 v 0 c 13.65,5.702 30.266,11.602 48.814,17.718 v 0 c 9.418,2.716 19.161,6.009 29.504,8.478 v 0 c 5.137,1.341 10.348,2.681 15.683,4.057 v 0 c 5.355,1.155 10.805,2.32 16.312,3.517 v 0 c 44.13,9.404 85.12,12.112 114.65,11.377 v 0 c 7.403,0.244 30.675,-1.258 34.933,-1.469 v 0 c 0,0 -0.204,-7.193 -0.163,-7.648 v 0 c -2.818,0.29 -3.654,0.36 -6.955,0.699 v 0 c -6.034,0.545 -12.919,1.45 -20.548,1.424 v 0 c -30.51,1.577 -73.023,-0.933 -118.667,-10.705 v 0 c -22.91,-4.49 -44.227,-10.941 -63.484,-16.922 v 0 c -19.104,-6.532 -36.199,-12.852 -50.105,-19.078 v 0 c -14.011,-6.016 -25.109,-11.533 -32.58,-15.603 v 0 c -4.734,-2.544 -7.893,-4.443 -9.649,-5.613 v 0 c -0.054,3.633 -0.148,7.261 -0.197,10.962 M 322.78,453.044 c 5.517,-1.197 10.926,-2.362 16.271,-3.517 v 0 c 5.347,-1.376 10.587,-2.716 15.751,-4.057 v 0 c 10.33,-2.469 20.012,-5.762 29.457,-8.478 v 0 c 18.565,-6.116 35.161,-12.016 48.787,-17.718 v 0 c 13.727,-5.559 24.658,-10.56 32.143,-14.052 v 0 c 4.204,-1.952 7.189,-3.372 9.169,-4.264 v 0 c 0.115,-3.683 0.197,-7.301 0.271,-10.983 v 0 c -1.891,1.205 -4.816,2.94 -8.954,5.144 v 0 c -7.471,4.07 -18.542,9.587 -32.592,15.603 v 0 c -13.931,6.226 -30.963,12.546 -50.101,19.078 v 0 c -19.255,5.981 -40.559,12.432 -63.479,16.922 v 0 c -45.583,9.772 -88.156,12.282 -118.647,10.705 v 0 c -7.613,0.026 -14.52,-0.879 -20.549,-1.424 v 0 c -3.29,-0.339 -4.154,-0.409 -6.985,-0.699 v 0 c 0.073,0.455 -0.14,7.648 -0.14,7.648 v 0 c 4.261,0.211 27.555,1.713 34.941,1.469 v 0 c 29.531,0.735 70.5,-1.973 114.657,-11.377 m 217.083,-42.227 c 1.714,0.784 5,2.511 10.03,4.947 v 0 c 7.293,3.627 17.854,8.844 31.196,14.554 v 0 c 13.276,5.893 29.456,12.009 47.568,18.235 v 0 c 9.159,2.817 18.686,6.179 28.825,8.73 v 0 c 1.794,0.463 3.673,0.959 5.489,1.45 v 0 c 3.675,-1.579 7.479,-3.049 11.256,-4.511 v 0 c -5.028,-1.342 -9.983,-2.634 -14.896,-3.927 v 0 c -10.369,-2.531 -20.154,-5.996 -29.585,-8.812 v 0 c -18.63,-6.436 -35.192,-12.71 -48.786,-18.929 v 0 c -13.608,-5.967 -24.298,-11.513 -31.6,-15.576 v 0 c -4.679,-2.584 -7.777,-4.517 -9.437,-5.721 v 0 c -0.034,3.171 -0.034,6.376 -0.06,9.56 m 0.272,-22.107 c 1.876,0.721 5.306,2.354 10.492,4.626 v 0 c 7.75,3.512 18.984,8.459 33.097,14.045 v 0 c 14.056,5.757 31.135,11.675 50.201,17.935 v 0 c 19.146,5.717 40.363,11.956 63.034,16.412 v 0 c 45.27,9.67 87.245,12.745 117.53,12.084 v 0 c 7.594,0.279 36.531,-1.468 36.531,-1.468 v 0 c 0,0 -0.019,-4.103 0,-4.948 v 0 c -1.005,0.062 -32.85,1.558 -38.973,1.585 v 0 c -6.071,0.015 -12.126,-0.081 -18.099,-0.394 v 0 C 715.616,444.498 673.607,430.25 640.81,419.73 v 0 c -32.811,-10.629 -58.489,-21.582 -75.908,-29.776 v 0 c -8.716,-4.162 -15.371,-7.567 -19.84,-9.988 v 0 c -2.063,-1.137 -3.601,-2.04 -4.71,-2.688 v 0 c -0.096,3.736 -0.15,7.601 -0.217,11.432 m -221.647,53.018 c 22.659,-4.456 43.868,-10.695 63.083,-16.412 v 0 c 19.028,-6.26 36.114,-12.178 50.162,-17.935 v 0 c 14.104,-5.586 25.311,-10.533 33.102,-14.045 v 0 c 4.619,-2.074 7.811,-3.524 9.804,-4.374 v 0 c 0.066,-3.838 0.136,-7.689 0.195,-11.548 v 0 c -1.113,0.647 -2.552,1.497 -4.467,2.552 v 0 c -4.42,2.421 -11.094,5.826 -19.801,9.988 v 0 c -17.436,8.194 -43.101,19.147 -75.928,29.776 v 0 c -32.797,10.52 -74.82,24.768 -153.107,28.857 v 0 c -5.985,0.313 -12.054,0.409 -18.13,0.394 v 0 c -6.107,-0.027 -37.958,-1.523 -39.002,-1.585 v 0 c 0.079,0.845 0,4.948 0,4.948 v 0 c 0,0 28.966,1.747 36.57,1.468 v 0 c 30.255,0.661 72.244,-2.414 117.519,-12.084 m 221.87,-64.897 c 14.576,6.863 113.333,52.766 222.583,62.748 v 0 c 50.916,4.659 91.143,0.592 94.273,0.34 v 0 c 0,0 -2.003,-387.456 -2.15,-412.788 v 0 C 813.148,38.704 675.383,58.771 576.252,45.386 v 0 C 573.53,58.063 544.83,191.924 540.358,376.831 m -382.131,63.088 c 3.151,0.252 43.387,4.319 94.291,-0.34 v 0 c 108.644,-9.948 206.918,-55.387 222.319,-62.642 v 0 C 476.634,233.893 461.718,86.661 447.977,44.08 v 0 C 348.43,59.982 203.575,39.058 160.409,27.131 v 0 c -0.17,25.332 -2.182,412.788 -2.182,412.788" /></clipPath><linearGradient
       id="linearGradient34"
       spreadMethod="pad"
       gradientTransform="matrix(-3.91e-5,-893.89075,-893.89075,3.91e-5,498.64014,1513.4883)"
       gradientUnits="userSpaceOnUse"
       y2="0"
       x2="1"
       y1="0"
       x1="0"><stop
         id="stop24"
         offset="0"
         style="stop-opacity:1;stop-color:#ad8d4d" /><stop
         id="stop26"
         offset="0.177914"
         style="stop-opacity:1;stop-color:#7c6336" /><stop
         id="stop28"
         offset="0.50568"
         style="stop-opacity:1;stop-color:#f9cc6d" /><stop
         id="stop30"
         offset="0.858896"
         style="stop-opacity:1;stop-color:#856a3a" /><stop
         id="stop32"
         offset="1"
         style="stop-opacity:1;stop-color:#ad8d4d" /></linearGradient></defs><g
     transform="matrix(1.3333333,0,0,-1.3333333,0,1333.3333)"
     id="g10"><g
       id="g12"><g
         clip-path="url(#clipPath18)"
         id="g14"><g
           id="g20"><g
             id="g22"><path
               id="path36"
               style="fill:url(#linearGradient34);stroke:none"
               d="m 475.102,908.481 c -13.333,-2.266 -26.672,-4.565 -39.992,-6.845 v 0 c 4.794,-9.24 10.044,-17.99 15.695,-26.36 v 0 c -22.213,0.926 -44.474,1.844 -66.686,2.769 v 0 c 10.272,-37.361 24.837,-72.159 43.109,-103.581 v 0 c 5.065,3.817 10.172,7.587 15.228,11.404 v 0 c -11.51,-50.93 -31.857,-84.155 -31.857,-84.155 v 0 c -11.143,26.578 -24.962,50.305 -38.857,70.465 v 0 c 5.536,22.481 3.427,45.017 0.852,59.449 v 0 c 3.102,-0.708 6.231,-1.436 9.371,-2.171 v 0 c 2.072,17.794 1.756,36.362 -0.931,55.292 v 0 c -11.34,-5.531 -22.683,-11.03 -34.032,-16.521 v 0 c 4.206,-9.873 7.185,-20.848 8.822,-32.633 v 0 c 3.276,-0.741 6.481,-1.504 9.743,-2.299 v 0 c 2.804,-18.665 -0.922,-38.561 -3.191,-48.059 v 0 c -10.489,14.179 -20.732,26.141 -29.415,35.64 v 0 c 7.761,34.777 11.244,71.52 10.009,109.427 v 0 c -24.093,-8.574 -48.198,-17.161 -72.329,-25.727 v 0 c 6.293,-20.828 9.896,-43.575 10.506,-67.716 v 0 c 10.182,-3.654 20.378,-7.246 30.565,-10.873 v 0 c 7.165,-7.213 13.822,-14.855 20.004,-22.544 v 0 c -8.58,-0.455 -26.458,-0.489 -43.439,5.002 v 0 c 2.376,1.035 4.75,2.122 7.142,3.239 v 0 C 276.655,842.8 253.191,872.283 225.4,899.295 v 0 c -11.381,-22.909 -22.808,-45.833 -34.209,-68.756 v 0 c 19.008,-10.595 37.45,-24.455 54.658,-41.398 v 0 c 10.871,4.926 21.774,9.887 32.643,14.826 v 0 c 13.487,-7.307 35.18,-15.282 62.015,-11.683 v 0 C 359.1,767.558 369.694,746.69 374.1,738.804 v 0 c -6.954,2.047 -13.555,3.401 -19.542,4.313 v 0 c -1.113,8.628 -2.181,17.249 -3.283,25.843 v 0 c -21.618,2.987 -42.571,8.641 -62.317,16.82 v 0 c -4.066,-32.267 -8.165,-64.545 -12.227,-96.812 v 0 c 28.339,2.123 56.047,7.784 82.526,16.808 v 0 c -1.215,9.77 -2.477,19.541 -3.723,29.325 v 0 c 21.611,-5.129 30.855,-19.242 30.855,-19.242 v 0 c 10.195,-22.666 24.723,-61.518 38.549,-100.05 v 0 c -6.562,2.83 -16.653,7.934 -31.334,16.868 v 0 c 2.77,1.755 5.509,3.497 8.237,5.239 v 0 c -14.234,17.549 -31.255,33.633 -50.688,47.827 v 0 c -5.022,-15.092 -10.057,-30.17 -15.062,-45.254 v 0 c 12.612,-4.872 25.163,-11.807 37.216,-20.719 v 0 c 3.971,2.51 7.941,5.048 11.911,7.579 v 0 c 13.276,-9.498 30.738,-21.522 46.586,-30.897 v 0 c 18.007,-50.911 33.14,-96.261 33.14,-96.261 v 0 c -10.574,8.805 -58.956,40.825 -104.449,70.438 v 0 c -11.939,17.976 -22.182,41.465 -29.684,61.333 v 0 c 1.357,-0.102 2.759,-0.224 4.167,-0.327 v 0 c -0.622,17.433 -3.578,35.295 -8.96,53.095 v 0 c -10.129,-6.934 -20.274,-13.908 -30.347,-20.856 v 0 c 5.497,-8.906 9.968,-19.018 13.251,-30.143 v 0 c 3.157,-0.251 6.3,-0.523 9.481,-0.775 v 0 c 6.257,-21.625 13.251,-40.635 14.684,-44.452 v 0 c -17.198,11.111 -32.528,20.977 -43.295,27.897 v 0 c -8.091,5.198 -17.515,14.071 -27.065,24.441 v 0 c 10.319,21.257 9.932,55.965 7.549,68.818 v 0 c 2.698,0.307 5.366,0.653 8.044,0.974 v 0 c -4.175,17.411 -10.785,34.749 -19.774,51.603 v 0 c -8.804,-9.044 -17.568,-18.106 -26.346,-27.176 v 0 c 7.325,-7.798 13.904,-17.079 19.464,-27.605 v 0 c 3.943,0.476 7.88,0.931 11.86,1.395 v 0 c 1.031,-25.156 -6.321,-51.597 -8.652,-59.225 v 0 c -18.78,21.699 -36.882,46.882 -45.33,59.013 v 0 c 8.226,2.641 16.524,4.853 24.958,6.614 v 0 c -14.868,28.933 -29.741,57.885 -44.602,86.809 v 0 c -22.219,-17.725 -41.89,-38.09 -58.615,-60.483 v 0 c 14.077,-15.895 28.18,-31.763 42.288,-47.67 v 0 c 8.859,4.45 17.94,8.321 27.166,11.696 v 0 c 7.386,-12.466 16.701,-23.713 25.156,-34.675 v 0 c -5.471,-0.714 -24.006,-1.034 -38.21,2.851 v 0 c 0.507,4.403 1.058,8.757 1.562,13.146 v 0 c -16.544,5.505 -33.923,8.887 -51.586,10.071 v 0 c 2.714,-20.148 5.402,-40.247 8.144,-60.388 v 0 c 12.275,5.218 25.322,8.846 38.794,10.826 v 0 c 0.8,6.851 1.626,13.751 2.426,20.637 v 0 c 8.666,-2.905 22.472,-6.049 42.837,-6.479 v 0 c 12.88,-16.975 23.016,-30.972 23.016,-30.972 v 0 c -57.725,18.542 -98.663,5.872 -110.149,1.443 v 0 c -2.187,3.565 -4.385,7.138 -6.559,10.695 v 0 c -17.685,-3.286 -34.787,-4.164 -50.93,-2.823 v 0 c -2.521,-18.875 -5.045,-37.743 -7.511,-56.611 v 0 c 28.363,5.096 55.121,13.506 79.63,24.916 v 0 c -2.971,4.839 -5.919,9.642 -8.883,14.473 v 0 c 16.05,5.076 51.828,12.588 92.514,-3.327 v 0 c 13.846,-5.376 31.186,-14.139 50.13,-25.094 v 0 c -16.626,-1.926 -46.548,-5.348 -67.247,-7.396 v 0 c -0.629,4.845 -1.254,9.669 -1.843,14.534 v 0 c -21.651,2.939 -42.588,8.608 -62.351,16.792 v 0 c -4.066,-32.299 -8.138,-64.538 -12.2,-96.832 v 0 c 28.313,2.137 56.057,7.785 82.535,16.814 v 0 c -1.744,13.942 -3.538,27.89 -5.313,41.805 v 0 c 22.396,1.267 58.762,3.424 81.607,5.179 v 0 c 22.6,-13.853 46.589,-30.259 69.005,-47.453 v 0 c -10.114,-1.687 -30.963,-3.92 -55.751,0 v 0 c 0.575,4.545 1.12,9.104 1.657,13.704 v 0 c -28.19,0.067 -57.162,-3.62 -86.223,-11.158 v 0 c 10.352,-16.365 20.647,-32.71 30.979,-49.053 v 0 c -7.481,0.45 -14.662,0.706 -21.382,0.782 v 0 c -12.867,-0.382 -24.193,-0.15 -33.542,-1.443 v 0 c -4.59,-0.461 -8.753,-0.892 -12.445,-1.279 v 0 c -3.779,-0.421 -7.073,-0.796 -9.849,-1.095 v 0 c 0.092,-3.423 0.419,-8.601 0.537,-10.097 v 0 c -3.603,-0.354 -9.574,-0.986 -12.468,-1.301 v 0 c 0,0 0.354,-7.137 0.439,-8.328 v 0 c 0.109,-1.844 0.272,-2.729 0.414,-3.04 v 0 c -1.659,-0.157 -7.739,-0.3 -7.787,-0.518 v 0 l 0.098,-1.396 c 0.014,-1.067 0.08,-2.089 0.12,-3.081 v 0 c 0.064,-1.49 0.17,-2.858 0.234,-4.042 v 0 c 0.028,-0.626 0.096,-0.952 0.14,-1.409 v 0 c -1.976,-0.223 -8.856,-0.823 -8.856,-0.823 v 0 c 0.045,-1.13 0.194,-6.009 0.245,-6.893 v 0 c -1.752,-0.109 -10.332,-0.721 -11.077,-0.823 v 0 -2.362 -5.953 -38.859 c 0,-104.942 0.268,-199.937 0.745,-268.735 v 0 c 0.34,-34.246 0.609,-62.034 0.83,-81.434 v 0 c 0.174,-9.493 0.853,-29.897 0.963,-29.897 v 0 c 0.176,0 157.073,32.374 300.905,21.182 v 0 c 28.891,-12.255 87.986,-15.173 117.033,0.713 v 0 C 712.275,50.143 861.963,19.204 862.106,19.204 v 0 c 0.129,0 0.809,20.404 1.026,29.897 v 0 c 0.171,19.4 0.436,47.188 0.778,81.434 v 0 c 0.461,68.798 0.747,163.793 0.747,268.735 v 0 38.859 5.953 2.362 c -0.747,0.102 -9.302,0.714 -11.076,0.823 v 0 c 0.047,0.884 0.19,5.763 0.257,6.893 v 0 c 0,0 -6.912,0.6 -8.859,0.823 v 0 c 0.035,0.457 0.076,0.783 0.129,1.409 v 0 c 0.082,1.184 0.17,2.552 0.225,4.042 v 0 c 0.068,0.992 0.095,2.014 0.142,3.081 v 0 l 0.104,1.396 c -0.075,0.218 -6.118,0.361 -7.828,0.518 v 0 c 0.152,0.311 0.307,1.196 0.439,3.04 v 0 c 0.086,1.191 0.441,8.328 0.441,8.328 v 0 c -2.878,0.315 -8.866,0.947 -12.471,1.301 v 0 c 0.129,1.496 0.42,6.674 0.55,10.097 v 0 c -2.796,0.299 -6.077,0.674 -9.873,1.095 v 0 c -3.689,0.387 -7.825,0.818 -12.438,1.279 v 0 c -9.322,1.293 -20.673,1.061 -33.558,1.443 v 0 c -24.844,-0.293 -55.591,-2.77 -88.061,-9.866 v 0 c 0.257,6.723 0.501,13.405 0.762,20.106 v 0 c -14.453,1.246 -29.363,4.628 -44.426,10.213 v 0 c -4.845,-5.558 -9.689,-11.043 -14.567,-16.581 v 0 c -5.921,1.095 -15.692,3.122 -25.367,6.095 v 0 c 31.762,28.219 72.561,53.68 72.561,53.68 v 0 c 40.764,-15.288 69.839,-14.97 84.945,-12.955 v 0 c 1.374,-7.294 2.708,-14.622 4.054,-21.965 v 0 c 20.759,-3.816 39.859,-10.021 56.945,-18.331 v 0 c 10.69,19.605 21.332,39.193 32.043,58.817 v 0 c -3.403,0.653 -6.785,1.218 -10.173,1.77 v 0 c 2.769,7.893 5.532,15.757 8.308,23.623 v 0 c 2.789,-2.271 5.633,-4.585 8.463,-6.844 v 0 c 20.931,12.111 42.173,20.963 63.226,26.496 v 0 c -5.294,25.04 -10.642,50.072 -15.949,75.098 v 0 c -33.654,-19.235 -63.729,-41.934 -89.659,-67.423 v 0 c 1.885,-1.505 3.741,-3.014 5.653,-4.573 v 0 c -14.628,-1.13 -29.592,-3.477 -42.438,-5.837 v 0 c -1.829,3.673 -2.877,7.926 -3.436,12.111 v 0 c 1.85,-0.728 3.647,-1.456 5.476,-2.171 v 0 c 4.432,8.308 7.997,17.235 10.705,26.611 v 0 c -8.954,0.552 -17.854,1.109 -26.823,1.634 v 0 c 0.748,-7.063 0.68,-14.411 -0.142,-21.814 v 0 c 2.117,-0.851 4.171,-1.634 6.239,-2.478 v 0 c 0.434,-5.994 1.891,-11.553 2.904,-14.826 v 0 c -14.54,-2.851 -25.568,-5.477 -28.857,-6.008 v 0 c 2.921,20.386 18.04,47.63 25.341,59.891 v 0 c 7.92,-5.253 15.602,-10.955 22.93,-17.133 v 0 c 17.42,12.207 34.791,24.379 52.203,36.573 v 0 c -11.119,25.666 -25.551,50.005 -43.031,72.397 v 0 c -21.162,-24.685 -42.323,-49.413 -63.485,-74.111 v 0 c 9.242,-4.363 18.243,-9.357 26.987,-14.834 v 0 C 748.378,639.76 731.184,593.131 731.184,593.131 v 0 c -8.151,-2.035 -16.649,-4.662 -25.217,-7.704 v 0 c 0.055,9.01 -2.109,18.788 -5.142,27.981 v 0 c 0.175,0 0.352,-0.015 0.543,-0.015 v 0 c -0.626,17.432 -3.613,35.274 -8.967,53.047 v 0 c -10.133,-6.934 -20.236,-13.888 -30.375,-20.829 v 0 c 5.519,-8.913 9.982,-19.004 13.253,-30.156 v 0 c 5.377,-0.408 10.732,-0.83 16.088,-1.265 v 0 c 3.966,-15.263 4.367,-26.605 4.089,-32.675 v 0 c -24.237,-9.471 -49.01,-21.902 -70.989,-33.986 v 0 c 2.402,7.599 6.402,17.316 10.267,25.89 v 0 c 6.608,-0.688 13.221,-1.375 19.849,-2.082 v 0 c 6.354,12.519 13.995,23.522 22.521,32.83 v 0 C 666.625,614.7 656.114,625.28 645.628,635.8 v 0 c -2.423,-4.723 -4.736,-9.478 -6.818,-14.228 v 0 c -10.234,2.273 -20.426,4.586 -30.638,6.852 v 0 c 6.64,14.609 11.082,24.421 11.082,24.421 v 0 c 30.354,17.079 43.637,35.001 48.924,44.487 v 0 c 4.857,-10.316 9.77,-20.59 14.656,-30.892 v 0 c 30.843,19.303 59.891,43.302 86.414,71.546 v 0 c -23.129,10.962 -46.215,21.978 -69.336,32.975 v 0 c -10.248,-19.175 -23.808,-37.839 -40.457,-55.32 v 0 c 2.02,-4.232 4.001,-8.464 6.041,-12.69 v 0 c -19.67,-25.747 -43.051,-33.552 -43.051,-33.552 v 0 c 9.533,24.094 25.768,69.765 39.969,110.393 v 0 c 28.258,15.432 42.901,28.543 50.413,37.485 v 0 c 2.252,-9.472 4.857,-18.991 7.756,-28.441 v 0 c 20.999,14.648 41.996,29.277 62.988,43.886 v 0 c -11.622,18.467 -21.08,39.472 -28.046,62.539 v 0 c -18.148,1.368 -36.193,2.721 -54.32,4.054 v 0 c 1.061,-25.128 4.533,-50.698 10.33,-76.329 v 0 c -11.568,-11.854 -34.328,-23.944 -44.092,-28.789 v 0 c 12.791,36.715 22.814,66.124 22.814,66.124 v 0 l -6.892,0.4 c -2.907,-7.708 -7.146,-18.853 -11.949,-31.265 v 0 c -12.329,9.663 -18.086,25.061 -20.666,34.899 v 0 c 8.289,-2.918 16.57,-5.879 24.884,-8.831 v 0 c 8.125,35.435 11.746,72.948 10.514,111.658 v 0 c -24.122,-8.56 -48.223,-17.106 -72.35,-25.693 v 0 c 6.3,-20.829 9.893,-43.588 10.512,-67.716 v 0 c 6.559,-2.314 13.126,-4.695 19.671,-6.982 v 0 c 2.681,-23.577 17.991,-41.28 23.686,-47.085 v 0 c -14.172,-36.662 -30.844,-79.201 -30.844,-79.201 v 0 c -0.788,6.32 -2.552,13.023 -4.668,19.446 v 0 c 3.457,3.994 7.009,7.954 10.451,11.956 v 0 c -4.544,8.633 -7.783,17.377 -9.675,25.998 v 0 c -10.247,-1.735 -20.441,-3.484 -30.661,-5.26 v 0 c 6.159,-11.806 13.351,-22.618 21.421,-32.279 v 0 c 7.832,-32.015 0.28,-43.642 0.28,-43.642 v 0 C 618.268,688.84 601.44,651.273 582.702,615.353 v 0 c -4.246,11.676 -6.356,26.475 -7.389,39.193 v 0 c 3.599,0.783 7.322,1.483 11.05,2.007 v 0 c 1.557,13.187 3.13,26.346 4.633,39.505 v 0 c -16.555,5.526 -33.905,8.888 -51.584,10.05 v 0 c 2.599,-19.058 5.145,-38.124 7.739,-57.196 v 0 c -2.226,1.286 -4.417,2.64 -6.63,3.96 v 0 c -4.938,-8.539 -11.437,-16.575 -19.378,-23.958 v 0 c 1.341,-3.109 2.689,-6.124 4.002,-9.206 v 0 c -6.335,-6.621 -11.108,-7.172 -11.108,-7.172 v 0 c 1.181,11.724 1.86,42.894 2.228,76.936 v 0 c 9.036,9.758 16.398,22.706 21.733,33.858 v 0 c 8.369,-5.334 16.752,-10.669 25.121,-16.01 v 0 c 16.902,12.527 34.505,22.291 52.203,29.102 v 0 c -7.037,21.182 -14.031,42.357 -21.106,63.531 v 0 c -27.285,-19.916 -51.142,-42.52 -71.147,-67.11 v 0 c 3.259,-2.068 6.553,-4.158 9.82,-6.26 v 0 c -5.316,-9.377 -11.786,-17.262 -16.461,-22.393 v 0 c 0.421,51.045 0.284,103.282 0.284,103.282 v 0 c 11.611,6.954 19.986,15.459 25.804,22.985 v 0 c -0.217,-6.784 -0.435,-13.575 -0.653,-20.366 v 0 c 28.006,-6.579 57.074,-9.117 86.367,-7.504 v 0 c -8.036,31.544 -16.058,63.068 -24.109,94.592 v 0 c -18.548,-10.579 -38.81,-18.44 -60.136,-23.406 v 0 c -0.338,-10.723 -0.722,-21.508 -1.082,-32.232 v 0 c -9.804,-13.534 -25.678,-22.699 -25.678,-22.699 v 0 c 2.169,35.661 -2.075,65.484 -4.178,77.535 v 0 c 9.103,2.266 18.352,3.987 27.768,5.157 v 0 c 2.994,21.018 5.988,42.023 8.981,63.048 v 0 c -27.142,9.601 -55.808,15.243 -85.05,16.787 v 0 c 3.467,-24.312 6.934,-48.589 10.356,-72.888 m 12.877,-42.785 c 1.756,2.007 3.502,4.014 5.251,6.036 v 0 c -2.804,5.313 -5.251,10.689 -7.366,16.023 v 0 c 6.994,2.743 14.18,5.11 21.488,7.152 v 0 c 1.908,-10.159 2.737,-23.434 2.881,-38.118 v 0 c -10.401,2.362 -17.45,5.607 -22.254,8.907 m -71.376,-177.04 c 22.437,42.676 33.095,88.013 36.6,105.235 v 0 c 5.865,4.375 11.741,8.79 17.62,13.173 v 0 c -5.148,18.255 -8.257,36.253 -9.421,53.699 v 0 c 3.504,-4.484 7.121,-8.818 10.928,-12.989 v 0 c 3.702,4.266 7.423,8.511 11.163,12.805 v 0 c 9.09,-7.192 20.844,-10.649 26.784,-12.016 v 0 c -0.393,-53.23 -8.583,-119.225 -8.583,-119.225 v 0 c -7.047,5.899 -12.649,14.581 -16.926,23.169 v 0 c 3.913,2.627 8.015,5.055 12.264,7.185 v 0 c -2.044,9.696 -4.054,19.379 -6.106,29.108 v 0 c -13.067,-0.067 -26.138,-1.774 -38.968,-5.171 v 0 c 6.722,-13.608 13.441,-27.217 20.148,-40.852 v 0 c 2.599,2.313 5.313,4.456 8.12,6.504 v 0 c 8.668,-19.365 19.791,-30.599 19.791,-30.599 v 0 c -0.589,-9.661 -1.484,-24.828 -2.511,-42.757 v 0 c -14.646,1.769 -23.223,11.227 -28.024,19.991 v 0 c 1.573,-0.123 3.137,-0.251 4.73,-0.354 v 0 c -0.613,17.419 -3.579,35.281 -8.972,53.081 v 0 c -10.108,-6.942 -20.198,-13.888 -30.372,-20.89 v 0 c 5.496,-8.9 10.006,-18.95 13.29,-30.123 v 0 c 3.531,-0.258 7.103,-0.564 10.648,-0.856 v 0 c 3.257,-9.023 8.72,-16.44 14.636,-22.332 v 0 c -8.607,0.783 -17.215,1.183 -25.825,1.027 v 0 c -2.518,-13.336 -5.1,-26.686 -7.631,-40.015 v 0 c -12.976,30.367 -23.383,53.202 -23.383,53.202 m 133.834,-41.738 c 4.939,1.994 10.001,3.722 15.159,5.191 v 0 c 0.259,-5.007 0.694,-10.069 1.292,-15.092 v 0 c -5.47,3.308 -10.953,6.622 -16.451,9.901 m -54.932,-7.437 c -3.473,-62.429 -7.311,-134.249 -7.311,-134.249 v 0 c -3.582,15.944 -11.809,39.65 -21.495,64.778 v 0 c 2.926,12.485 3.842,27.046 3.899,39.988 v 0 c 2.705,-2.062 5.386,-4.192 7.974,-6.417 v 0 c 5.635,11.929 11.268,23.938 16.933,35.9 m 72.472,-10.567 c 1.837,-12.227 4.164,-23.311 5.777,-30.306 v 0 c -28.142,-51.794 -57.149,-95.953 -57.149,-95.953 v 0 c -1.566,11.063 -1.266,94.333 -1.266,94.333 v 0 c 5.635,4.662 10.221,9.098 13.928,13.234 v 0 c 0.838,-1.96 1.737,-3.925 2.572,-5.871 v 0 c 12.718,6.417 24.871,14.676 36.138,24.563 M 443.5,627.159 c 6.811,-3.532 13.361,-7.486 19.63,-11.786 v 0 c -0.765,-9.852 -2.336,-19.242 -3.813,-26.597 v 0 c -5.244,13.131 -10.683,26.17 -15.817,38.383 m 360.204,-28.803 c 10.057,1.769 18.569,2.974 24.912,3.756 v 0 c 6.265,-5.029 12.527,-10.077 18.758,-15.119 v 0 c -7.553,2.593 -15.05,6.444 -22.189,11.505 v 0 c -3.544,-2.482 -7.123,-5.007 -10.696,-7.525 v 0 c -3.803,2.28 -7.635,4.797 -10.785,7.383 m -173.277,1.858 c -2.911,-8.478 -5.354,-17.018 -7.281,-25.578 v 0 c 1.449,-0.156 2.879,-0.305 4.37,-0.469 v 0 c -6.54,-12.86 -13.12,-27.305 -16.127,-34.062 v 0 c -34.783,-19.964 -59.877,-37.45 -59.877,-37.45 v 0 c 2.333,5.456 9.458,21.324 18.194,40.825 v 0 c 15.922,10.866 28.231,26.455 36.158,38.437 v 0 c 1.402,-1.749 2.803,-3.51 4.231,-5.328 v 0 c 7.22,7.219 14.012,15.147 20.332,23.625 m -36.477,-3.158 c 2.457,-3.143 4.94,-6.253 7.396,-9.389 v 0 c -8.015,-9.921 -15.752,-17.208 -21.597,-22.019 v 0 c 4.715,10.438 9.607,21.195 14.201,31.408 m 90.7,-34.98 c 38.669,18.338 79.787,28.802 110.196,34.654 v 0 c 3.538,-2.395 8.852,-5.994 14.343,-9.54 v 0 c -0.749,-0.496 -1.476,-1.021 -2.15,-1.503 v 0 c 5.98,-7.526 12.86,-14.521 20.604,-20.904 v 0 c -25.68,3.436 -50.972,4.336 -75.542,2.654 v 0 c 1.096,-5.831 2.15,-11.656 3.238,-17.452 v 0 c -52.392,0.721 -70.689,12.091 -70.689,12.091 M 468.064,428.623 c -6.614,4.218 -16.365,10.05 -28.919,16.291 v 0 c -12.476,6.415 -27.812,13.05 -45.18,19.582 v 0 c -8.791,3.035 -17.902,6.478 -27.636,9.166 v 0 c -4.885,1.332 -9.763,2.959 -14.846,4.162 v 0 c -5.056,1.226 -10.19,2.45 -15.392,3.696 v 0 c -23.903,5.402 -46.786,8.173 -67.342,9.477 v 0 c 14.235,7.825 30.085,14.127 47.46,18.502 v 0 c 0.758,6.574 1.583,13.173 2.331,19.732 v 0 c 19.504,-3.966 49.061,-7.953 68.937,-1.027 v 0 c 41.809,-33.523 84.335,-66.729 85.587,-92.15 v 0 c 0.181,-3.696 0.338,-7.431 0.504,-11.18 v 0 c -1.517,1.068 -3.259,2.287 -5.504,3.749 m 71.784,12.052 c 0.198,27.133 35.016,41.607 51.36,53.936 v 0 c 7.694,-0.836 18.282,-1.884 29.183,-3.49 v 0 c -1.722,-1.966 -3.436,-3.913 -5.164,-5.9 v 0 c 7.634,-5.28 15.731,-10.091 24.045,-14.69 v 0 c -6.095,-1.993 -12.05,-4.048 -17.8,-6.035 v 0 c -17.351,-6.532 -32.714,-13.167 -45.167,-19.582 v 0 c -12.58,-6.241 -22.323,-12.073 -28.904,-16.291 v 0 c -3.443,-2.212 -5.961,-4.015 -7.607,-5.253 v 0 c 0,5.723 0,11.472 0.054,17.305 m 242.825,47.284 c 7.984,0.115 15.207,0.231 21.536,-0.343 v 0 c 4.585,-0.21 8.749,-0.427 12.418,-0.619 v 0 c 3.49,-0.17 6.23,-0.462 7.642,-0.462 v 0 c -0.192,-2.443 -0.586,-6.715 -0.492,-8.254 v 0 c -1.428,0.135 -1.171,0.177 -2.708,0.34 v 0 c -5.804,0.435 -12.377,1.559 -19.686,1.531 v 0 c -29.169,1.627 -69.987,-0.496 -113.637,-10.151 v 0 c -1.843,-0.422 -3.64,-0.83 -5.478,-1.245 v 0 c 0.116,2.727 0.198,5.463 0.315,8.177 v 0 c 32.571,7.227 63.386,10.099 88.326,10.935 v 0 c 0.545,-0.002 1.089,-0.003 1.63,-0.003 v 0 c 3.498,0 6.88,0.047 10.134,0.094 m -591.482,-1.424 c 1.384,0 4.14,0.292 7.651,0.462 v 0 c 3.654,0.192 7.792,0.409 12.398,0.619 v 0 c 6.33,0.574 13.546,0.458 21.522,0.343 v 0 c 3.754,-0.055 7.676,-0.109 11.754,-0.091 v 0 c 25.485,-0.905 57.087,-3.776 90.415,-11.35 v 0 c 5.161,-1.204 10.248,-2.409 15.296,-3.592 v 0 c 5.029,-1.183 9.826,-2.796 14.687,-4.103 v 0 c 9.659,-2.584 18.752,-5.871 27.452,-8.757 v 0 c 17.262,-6.254 32.64,-12.424 45.21,-18.412 v 0 c 12.664,-5.77 22.618,-11.057 29.46,-14.772 v 0 c 2.766,-1.443 4.869,-2.619 6.583,-3.572 v 0 c 0.14,-3.478 0.272,-7.016 0.384,-10.534 v 0 c -1.769,1.219 -4.221,2.796 -7.504,4.749 v 0 c -7.018,4.192 -17.399,9.901 -30.637,16.107 v 0 c -13.173,6.328 -29.371,12.846 -47.544,19.398 v 0 c -9.234,2.947 -18.818,6.41 -28.983,9.05 v 0 c -5.066,1.395 -10.21,2.96 -15.487,4.219 v 0 c -5.327,1.232 -10.696,2.457 -16.15,3.702 v 0 c -43.683,9.655 -84.454,11.778 -113.628,10.151 v 0 c -7.317,0.028 -13.894,-1.096 -19.692,-1.531 v 0 c -1.521,-0.163 -1.269,-0.205 -2.674,-0.34 v 0 c 0.069,1.539 -0.313,5.811 -0.513,8.254 m 490.874,-23.04 c 2.252,0.49 4.484,1.001 6.756,1.531 v 0 c 43.228,9.547 83.495,12.194 112.475,11.492 v 0 c 7.253,0.322 30.401,-1.667 34.553,-1.849 v 0 c 0,0 -0.763,-7.792 -0.696,-8.929 v 0 c 0,0 -3.939,0.396 -7.674,0.783 v 0 c -5.865,0.517 -12.602,1.532 -20.017,1.49 v 0 c -29.777,1.702 -71.268,-0.524 -115.809,-9.989 v 0 c -3.348,-0.721 -6.6,-1.387 -9.873,-2.136 v 0 c 0.087,2.531 0.197,5.083 0.285,7.607 m -355.432,1.531 c 5.409,-1.238 10.707,-2.429 15.97,-3.64 v 0 c 5.267,-1.239 10.339,-2.763 15.36,-4.103 v 0 c 10.132,-2.551 19.659,-5.913 28.82,-8.73 v 0 c 18.137,-6.226 34.29,-12.342 47.572,-18.235 v 0 c 13.374,-5.71 23.914,-10.927 31.21,-14.554 v 0 c 3.74,-1.845 6.564,-3.28 8.482,-4.246 v 0 c 0.103,-3.11 0.188,-6.296 0.304,-9.419 v 0 c -1.841,1.192 -4.603,2.887 -8.254,4.879 v 0 c -7.267,4.063 -17.976,9.609 -31.633,15.576 v 0 c -13.527,6.219 -30.126,12.493 -48.763,18.929 v 0 c -9.451,2.816 -19.215,6.281 -29.619,8.812 v 0 c -5.178,1.382 -10.451,2.749 -15.803,4.178 v 0 c -5.453,1.184 -10.913,2.374 -16.459,3.551 v 0 c -44.568,9.465 -86.063,11.691 -115.809,9.989 v 0 c -7.45,0.042 -14.156,-0.973 -20.048,-1.49 v 0 c -3.705,-0.387 -7.666,-0.783 -7.666,-0.783 v 0 c 0.065,1.137 -0.69,8.929 -0.69,8.929 v 0 c 4.18,0.182 27.281,2.171 34.558,1.849 v 0 c 28.986,0.702 69.204,-1.945 112.468,-11.492 m 213.161,-42.805 c 1.783,0.966 4.601,2.497 8.655,4.661 v 0 c 6.798,3.715 16.752,9.002 29.409,14.772 v 0 c 12.601,5.988 27.951,12.158 45.199,18.412 v 0 c 7.112,2.368 14.543,4.871 22.243,7.179 v 0 c 3.484,-1.852 7.092,-3.497 10.697,-5.192 v 0 c -10.144,-2.633 -19.678,-6.076 -28.87,-9.023 v 0 c -18.174,-6.552 -34.375,-13.07 -47.514,-19.398 v 0 c -13.242,-6.206 -23.638,-11.915 -30.654,-16.107 v 0 c -4.552,-2.674 -7.519,-4.687 -9.111,-5.898 v 0 c -0.027,3.523 -0.054,7.035 -0.054,10.594 m 0.129,-21.753 c 1.816,0.735 5.206,2.395 10.358,4.754 v 0 c 7.477,3.492 18.377,8.493 32.094,14.052 v 0 c 13.65,5.702 30.266,11.602 48.814,17.718 v 0 c 9.418,2.716 19.161,6.009 29.504,8.478 v 0 c 5.137,1.341 10.348,2.681 15.683,4.057 v 0 c 5.355,1.155 10.805,2.32 16.312,3.517 v 0 c 44.13,9.404 85.12,12.112 114.65,11.377 v 0 c 7.403,0.244 30.675,-1.258 34.933,-1.469 v 0 c 0,0 -0.204,-7.193 -0.163,-7.648 v 0 c -2.818,0.29 -3.654,0.36 -6.955,0.699 v 0 c -6.034,0.545 -12.919,1.45 -20.548,1.424 v 0 c -30.51,1.577 -73.023,-0.933 -118.667,-10.705 v 0 c -22.91,-4.49 -44.227,-10.941 -63.484,-16.922 v 0 c -19.104,-6.532 -36.199,-12.852 -50.105,-19.078 v 0 c -14.011,-6.016 -25.109,-11.533 -32.58,-15.603 v 0 c -4.734,-2.544 -7.893,-4.443 -9.649,-5.613 v 0 c -0.054,3.633 -0.148,7.261 -0.197,10.962 M 322.78,453.044 c 5.517,-1.197 10.926,-2.362 16.271,-3.517 v 0 c 5.347,-1.376 10.587,-2.716 15.751,-4.057 v 0 c 10.33,-2.469 20.012,-5.762 29.457,-8.478 v 0 c 18.565,-6.116 35.161,-12.016 48.787,-17.718 v 0 c 13.727,-5.559 24.658,-10.56 32.143,-14.052 v 0 c 4.204,-1.952 7.189,-3.372 9.169,-4.264 v 0 c 0.115,-3.683 0.197,-7.301 0.271,-10.983 v 0 c -1.891,1.205 -4.816,2.94 -8.954,5.144 v 0 c -7.471,4.07 -18.542,9.587 -32.592,15.603 v 0 c -13.931,6.226 -30.963,12.546 -50.101,19.078 v 0 c -19.255,5.981 -40.559,12.432 -63.479,16.922 v 0 c -45.583,9.772 -88.156,12.282 -118.647,10.705 v 0 c -7.613,0.026 -14.52,-0.879 -20.549,-1.424 v 0 c -3.29,-0.339 -4.154,-0.409 -6.985,-0.699 v 0 c 0.073,0.455 -0.14,7.648 -0.14,7.648 v 0 c 4.261,0.211 27.555,1.713 34.941,1.469 v 0 c 29.531,0.735 70.5,-1.973 114.657,-11.377 m 217.083,-42.227 c 1.714,0.784 5,2.511 10.03,4.947 v 0 c 7.293,3.627 17.854,8.844 31.196,14.554 v 0 c 13.276,5.893 29.456,12.009 47.568,18.235 v 0 c 9.159,2.817 18.686,6.179 28.825,8.73 v 0 c 1.794,0.463 3.673,0.959 5.489,1.45 v 0 c 3.675,-1.579 7.479,-3.049 11.256,-4.511 v 0 c -5.028,-1.342 -9.983,-2.634 -14.896,-3.927 v 0 c -10.369,-2.531 -20.154,-5.996 -29.585,-8.812 v 0 c -18.63,-6.436 -35.192,-12.71 -48.786,-18.929 v 0 c -13.608,-5.967 -24.298,-11.513 -31.6,-15.576 v 0 c -4.679,-2.584 -7.777,-4.517 -9.437,-5.721 v 0 c -0.034,3.171 -0.034,6.376 -0.06,9.56 m 0.272,-22.107 c 1.876,0.721 5.306,2.354 10.492,4.626 v 0 c 7.75,3.512 18.984,8.459 33.097,14.045 v 0 c 14.056,5.757 31.135,11.675 50.201,17.935 v 0 c 19.146,5.717 40.363,11.956 63.034,16.412 v 0 c 45.27,9.67 87.245,12.745 117.53,12.084 v 0 c 7.594,0.279 36.531,-1.468 36.531,-1.468 v 0 c 0,0 -0.019,-4.103 0,-4.948 v 0 c -1.005,0.062 -32.85,1.558 -38.973,1.585 v 0 c -6.071,0.015 -12.126,-0.081 -18.099,-0.394 v 0 C 715.616,444.498 673.607,430.25 640.81,419.73 v 0 c -32.811,-10.629 -58.489,-21.582 -75.908,-29.776 v 0 c -8.716,-4.162 -15.371,-7.567 -19.84,-9.988 v 0 c -2.063,-1.137 -3.601,-2.04 -4.71,-2.688 v 0 c -0.096,3.736 -0.15,7.601 -0.217,11.432 m -221.647,53.018 c 22.659,-4.456 43.868,-10.695 63.083,-16.412 v 0 c 19.028,-6.26 36.114,-12.178 50.162,-17.935 v 0 c 14.104,-5.586 25.311,-10.533 33.102,-14.045 v 0 c 4.619,-2.074 7.811,-3.524 9.804,-4.374 v 0 c 0.066,-3.838 0.136,-7.689 0.195,-11.548 v 0 c -1.113,0.647 -2.552,1.497 -4.467,2.552 v 0 c -4.42,2.421 -11.094,5.826 -19.801,9.988 v 0 c -17.436,8.194 -43.101,19.147 -75.928,29.776 v 0 c -32.797,10.52 -74.82,24.768 -153.107,28.857 v 0 c -5.985,0.313 -12.054,0.409 -18.13,0.394 v 0 c -6.107,-0.027 -37.958,-1.523 -39.002,-1.585 v 0 c 0.079,0.845 0,4.948 0,4.948 v 0 c 0,0 28.966,1.747 36.57,1.468 v 0 c 30.255,0.661 72.244,-2.414 117.519,-12.084 m 221.87,-64.897 c 14.576,6.863 113.333,52.766 222.583,62.748 v 0 c 50.916,4.659 91.143,0.592 94.273,0.34 v 0 c 0,0 -2.003,-387.456 -2.15,-412.788 v 0 C 813.148,38.704 675.383,58.771 576.252,45.386 v 0 C 573.53,58.063 544.83,191.924 540.358,376.831 m -382.131,63.088 c 3.151,0.252 43.387,4.319 94.291,-0.34 v 0 c 108.644,-9.948 206.918,-55.387 222.319,-62.642 v 0 C 476.634,233.893 461.718,86.661 447.977,44.08 v 0 C 348.43,59.982 203.575,39.058 160.409,27.131 v 0 c -0.17,25.332 -2.182,412.788 -2.182,412.788" /></g></g></g></g></g></svg>